<svg width="28" height="28" viewBox="0 0 28 28" fill="none" xmlns="http://www.w3.org/2000/svg">
<path d="M14 4.24609C10.6349 4.24609 7.89697 6.98387 7.89697 10.349C7.89697 13.7142 10.6349 16.452 14 16.452C17.3652 16.452 20.1031 13.7142 20.1031 10.349C20.1031 6.98387 17.3652 4.24609 14 4.24609ZM14 14.8103C11.54 14.8103 9.53852 12.809 9.53852 10.3489C9.53852 7.88891 11.54 5.88764 14 5.88764C16.4601 5.88764 18.4615 7.88902 18.4615 10.349C18.4615 12.8091 16.4602 14.8103 14 14.8103Z" fill="#000002"/>
<path d="M13.9999 0C8.2934 0 3.65088 4.64252 3.65088 10.349C3.65088 13.64 6.41087 18.543 8.05603 21.1727C9.13847 22.9028 10.3017 24.5494 11.3312 25.809C12.9838 27.8307 13.5754 27.9999 14 27.9999C14.4309 27.9999 14.9894 27.8306 16.6368 25.8078C17.6687 24.5406 18.8325 22.895 19.9138 21.174C21.5702 18.5379 24.3489 13.6261 24.3489 10.3489C24.3489 4.64252 19.7064 0 13.9999 0ZM18.7758 19.8959C16.6531 23.3413 14.7044 25.6694 13.9901 26.2638C13.2721 25.6877 11.355 23.4149 9.20271 19.9067C6.71773 15.8559 5.29254 12.3722 5.29254 10.349C5.29243 5.54767 9.19855 1.64155 13.9999 1.64155C18.8012 1.64155 22.7073 5.54767 22.7073 10.349C22.7074 12.3606 21.2743 15.8403 18.7758 19.8959Z" fill="#000002"/>
</svg>
